<?xml version="1.0" standalone="no"?>
<!DOCTYPE svg PUBLIC "-//W3C//DTD SVG 20010904//EN"
 "http://www.w3.org/TR/2001/REC-SVG-20010904/DTD/svg10.dtd">
<svg version="1.0" xmlns="http://www.w3.org/2000/svg"
 width="235.000000pt" height="235.000000pt" viewBox="0 0 235.000000 235.000000"
 preserveAspectRatio="xMidYMid meet">
<metadata>
Created by potrace 1.11, written by Peter Selinger 2001-2013
</metadata>
<g transform="translate(0.000000,235.000000) scale(0.100000,-0.100000)"
fill="#000000" stroke="none">
<path d="M1057 1848 c-3 -13 -9 -59 -13 -103 -5 -61 -11 -83 -26 -93 -10 -7
-18 -24 -18 -37 0 -14 -7 -26 -19 -30 -32 -10 -111 -103 -136 -160 -84 -189
-43 -507 86 -675 l35 -45 -28 -23 c-15 -13 -28 -29 -28 -36 0 -7 -17 -18 -37
-24 -21 -7 -51 -20 -67 -30 -29 -17 -30 -17 -75 6 -90 46 -250 13 -333 -70
-66 -67 -101 -180 -84 -273 l7 -35 226 0 225 0 -4 80 c-2 44 0 80 3 80 4 0 18
-9 33 -21 23 -18 26 -28 26 -80 l0 -59 680 0 680 0 0 184 0 183 -62 28 c-128
58 -278 40 -369 -42 l-38 -34 -20 45 c-22 52 -65 82 -126 92 -29 4 -44 12 -50
27 -7 15 -30 28 -72 42 -59 19 -61 21 -46 40 58 76 72 186 55 425 -19 261 -83
383 -220 419 -22 6 -42 18 -45 25 -3 8 -16 16 -28 18 -17 2 -28 20 -53 90 -36
100 -51 121 -59 86z m69 -183 c-4 -11 -16 -15 -38 -13 l-33 3 2 70 c4 125 11
131 45 38 17 -45 28 -90 24 -98z m-133 -190 c10 -24 -26 -59 -51 -51 -28 9
-28 31 0 50 28 20 44 20 51 1z m-73 -98 c0 -7 -13 -21 -30 -30 -33 -20 -38
-13 -14 21 17 24 44 30 44 9z m324 -3 c23 -22 20 -51 -9 -79 -48 -49 -115 -23
-115 45 0 20 3 40 7 43 13 14 101 7 117 -9z m-202 -30 c26 -55 -46 -114 -97
-80 -37 24 -35 81 3 94 51 19 81 14 94 -14z m-117 -207 c8 -52 4 -63 -19 -54
-24 10 -45 50 -52 101 l-7 47 36 -23 c30 -19 36 -30 42 -71z"/>
<path d="M1177 1343 c-12 -11 -8 -23 8 -23 8 0 15 7 15 15 0 16 -12 20 -23 8z"/>
<path d="M980 1315 c0 -8 5 -15 10 -15 6 0 10 7 10 15 0 8 -4 15 -10 15 -5 0
-10 -7 -10 -15z"/>
</g>
</svg>
